<?xml version="1.0" standalone="no"?>
<!DOCTYPE svg PUBLIC "-//W3C//DTD SVG 1.1//EN" "http://www.w3.org/Graphics/SVG/1.1/DTD/svg11.dtd" >
<svg xmlns="http://www.w3.org/2000/svg" xmlns:xlink="http://www.w3.org/1999/xlink" version="1.1">
<metadata></metadata>
<defs>
<font id="web_yekanregular" horiz-adv-x="1210" >
<font-face units-per-em="2048" ascent="1638" descent="-410" />
<missing-glyph horiz-adv-x="469" />
<glyph horiz-adv-x="0" />
<glyph unicode="&#xd;" horiz-adv-x="469" />
<glyph unicode=" "  horiz-adv-x="469" />
<glyph unicode="&#x09;" horiz-adv-x="469" />
<glyph unicode="&#xa0;" horiz-adv-x="469" />
<glyph unicode="!" horiz-adv-x="469" d="M109 120q0 110 131 110t131 -110q0 -120 -131 -120t-131 120zM149 759v395h177v-395q-12 -12 -12 -136l-28 -274h-95z" />
<glyph unicode="%" horiz-adv-x="469" d="M68 663.5q0 110.5 88 194t198 83.5t199.5 -88t89.5 -196.5t-92.5 -187.5t-203.5 -79t-195 81.5t-84 192zM189 653.5q0 -64.5 52 -106.5t116.5 -42t111.5 47.5t47 110.5t-53 110t-117.5 47t-110.5 -51t-46 -115.5zM309 -244l640 1174h180l-646 -1174h-174zM826 50 q0 108 91.5 197t202.5 89t196 -88.5t85 -200t-89.5 -189t-199 -77.5t-198 80.5t-88.5 188.5zM949 41.5q0 -69.5 76 -117.5q43 -28 98.5 -28t105 49t49.5 110t-50.5 110t-113 49t-114 -51.5t-51.5 -121z" />
<glyph unicode="(" horiz-adv-x="721" d="M135 280q0 309 120 595q82 197 293 524h95q-162 -313 -229 -511q-94 -276 -94 -586t74 -580t246 -576h-99q-205 295 -305 560t-101 574z" />
<glyph unicode=")" horiz-adv-x="721" d="M76 -854q323 599 323 1062q0 371 -65.5 595.5t-254.5 595.5h99q204 -303 305 -562t101 -568.5t-118 -593.5q-82 -199 -295 -529h-95z" />
<glyph unicode="*" horiz-adv-x="680" />
<glyph unicode="+" horiz-adv-x="1275" d="M90 239v176h464v464h171v-464h466v-176h-466v-464h-171v464h-464z" />
<glyph unicode="," horiz-adv-x="264" d="M4 34q0 110 136 110q82 0 105 -36t23 -161t-25 -191q-43 -111 -177 -124v65q79 8 107 75q14 38 18 138q-187 0 -187 124z" />
<glyph unicode="-" horiz-adv-x="1149" d="M95 239v177h981v-177h-981z" />
<glyph unicode="." horiz-adv-x="564" d="M151 96q1 112 133 112t132 -112q0 -119 -132 -119t-133 119z" />
<glyph unicode="/" horiz-adv-x="971" d="M84 -244l640 1174h180l-648 -1174h-172z" />
<glyph unicode="0" d="M284 324.5q0 124.5 100.5 222t224.5 97.5t220.5 -102t96.5 -222t-100.5 -208.5t-222 -88.5t-220.5 88.5t-99 213zM424 317.5q0 -70.5 58 -117.5t127 -47t120.5 51.5t51.5 120.5t-54 122t-125.5 53t-124.5 -56t-53 -126.5z" />
<glyph unicode="1" d="M475 913l171 56l62 -241q0 -6 14 -116t14 -261v-551h-175v551q0 276 -86 562z" />
<glyph unicode="2" d="M253 913l173 56l72 -295q27 -113 133 -113q74 1 107 48t33 84q0 5 -1 10l-29 215q55 18 167 53q50 -246 50 -338t-86 -160t-175.5 -68t-180.5 59l3 -664h-181v525q0 357 -85 588z" />
<glyph unicode="3" d="M50 913l178 56l67 -295q26 -113 140 -113q59 1 99 42t40 84q0 8 -1 16l-34 215l169 62q41 -213 41 -304q0 -11 -3 -63q46 -57 106.5 -57t99 37.5t38.5 89.5q0 10 -1 20l-29 215l166 51l34 -291q1 -11 1 -24q0 -98 -80 -165.5t-185.5 -67.5t-215.5 124q0 -130 -189 -130 q-94 0 -177 46l1 -661h-175v525q0 334 -90 588z" />
<glyph unicode="4" d="M135 913l169 56q51 -188 79 -351l92 -43q0 403 328 403q102 0 217 -57l-60 -155q-74 54 -148 54t-128.5 -48.5t-54.5 -120.5q0 -117 135 -117q102 0 255 76l56 -144q-194 -90 -357 -90t-324 70l2 -646h-175v538q0 264 -86 575z" />
<glyph unicode="5" d="M48 104q0 220 177 439l196 241l-70 50l115 137q697 -520 697 -897q-1 -145 -103 -230t-242 -85t-232 70q-126 -73 -254 -73t-206 104t-78 244zM236 121q0 -169 152 -169q139 0 140 158q-2 11 -9 68h177q12 -24 12 -89t-19 -100q53 -34 117 -34q168 0 168 163 q0 212 -420 560q-318 -334 -318 -557z" />
<glyph unicode="6" d="M239 648q0 148 88.5 241.5t228.5 93.5q99 0 225 -65l-57 -160q-76 40 -144 40t-114.5 -42t-46.5 -107q0 -144 164 -144q111 0 243 85l145 -107q-72 -64 -140 -147l-151 -185q-117 -143 -261 -396l-158 96q85 163 327 480q-157 1 -253 85t-96 232z" />
<glyph unicode="7" d="M104 890l157 81q166 -283 233 -462q6 -16 34 -119l70 -259l20 -2q73 363 193 581l144 261q70 -37 154 -78l-149 -255q-72 -122 -146 -304t-140 -534h-140q-45 306 -142 539t-288 551z" />
<glyph unicode="8" d="M101 -110q199 332 289 548t146 542l140 -2q73 -446 262 -793q56 -104 171 -298q-83 -37 -156 -81q-165 282 -232 464q-12 32 -38 134l-65 245l-20 2q-36 -165 -96 -353t-243 -492q-88 49 -158 84z" />
<glyph unicode="9" d="M279 655q1 134 87 231t224 97q85 0 185 -59q158 -93 158 -539v-585h-175v615q-109 -36 -220 -36t-185 71t-74 205zM433 655q0 -119 121 -119q76 0 185 63q-7 46 -26 134q-24 64 -73 76q-4 1 -59 11q-68 0 -108 -48t-40 -117z" />
<glyph unicode=":" horiz-adv-x="564" d="M160 543q0 111 133 111t133 -111q0 -119 -133 -119t-133 119zM163 120q1 110 133 110t132 -110q0 -120 -138 -120q-54 0 -90.5 33t-36.5 87z" />
<glyph unicode="=" horiz-adv-x="1225" d="M121 0v176h989v-176h-989zM121 374v176h989v-176h-989z" />
<glyph unicode="[" horiz-adv-x="770" d="M159 -834l2 2603h535v-169h-350l-3 -2265h353v-169h-537z" />
<glyph unicode="]" horiz-adv-x="783" d="M157 -676h352l-2 2267h-350v169h534l2 -2605h-536v169z" />
<glyph unicode="{" horiz-adv-x="1050" d="M97 550v51q328 72 328 302v35q0 32 -29.5 166t-29.5 224q0 210 134 352t347 175v-53q-131 -18 -219 -103t-88 -212q0 -61 30 -213q29 -152 29 -172v-61q0 -309 -392 -463q387 -159 387 -481q0 -67 -29.5 -208.5t-29.5 -161.5v-60q0 -249 312 -320v-52q-212 39 -349 181 t-137 352q0 88 32 226t32 156v21q0 128 -95.5 215.5t-232.5 103.5z" />
<glyph unicode="}" horiz-adv-x="970" d="M131 -651q312 72 312 320q0 77 -31 223t-31 210q0 320 390 481q-395 154 -395 461q0 57 29.5 211.5t29.5 192.5v44q0 127 -86 209t-218 103v57q213 -37 347 -178t134 -352q0 -80 -29.5 -215t-29.5 -170v-40q0 -231 328 -302v-52q-136 -15 -232 -103t-96 -222 q1 -27 31 -165t30 -232q0 -209 -136 -351t-347 -179v49z" />
<glyph unicode="&#xab;" horiz-adv-x="926" d="M96 255v194l323 250v-145l-264 -200l264 -203v-146zM509 255v194l320 250v-145l-259 -200l259 -203v-146z" />
<glyph unicode="&#xad;" horiz-adv-x="1149" d="M95 239v177h981v-177h-981z" />
<glyph unicode="&#xb7;" horiz-adv-x="512" d="M156 759q0 106 96 106t96 -107q0 -43 -26 -74t-69 -31q-97 0 -97 106z" />
<glyph unicode="&#xbb;" horiz-adv-x="926" d="M95 5v144l259 200l-259 204v146l320 -250v-194zM505 5v144l264 200l-264 204v146l321 -250v-194z" />
<glyph unicode="&#xd7;" horiz-adv-x="1275" d="M99 744l124 124l417 -418l419 420l121 -126l-414 -419l414 -415l-126 -126l-410 416l-419 -416l-124 123l419 418z" />
<glyph unicode="&#xf7;" horiz-adv-x="1171" d="M73 225v179h1022v-179h-1022zM435 -112q0 56 40 92t95.5 36t92.5 -41t37 -95.5t-42 -93.5t-96.5 -39t-90.5 42.5t-36 98.5zM444 746q0 55 39.5 92.5t92.5 37.5t93.5 -39.5t40.5 -93.5t-42.5 -96.5t-97.5 -42.5t-90.5 43.5t-35.5 98.5z" />
<glyph unicode="&#x2000;" horiz-adv-x="930" />
<glyph unicode="&#x2001;" horiz-adv-x="1861" />
<glyph unicode="&#x2002;" horiz-adv-x="930" />
<glyph unicode="&#x2003;" horiz-adv-x="1861" />
<glyph unicode="&#x2004;" horiz-adv-x="620" />
<glyph unicode="&#x2005;" horiz-adv-x="465" />
<glyph unicode="&#x2006;" horiz-adv-x="310" />
<glyph unicode="&#x2007;" horiz-adv-x="310" />
<glyph unicode="&#x2008;" horiz-adv-x="232" />
<glyph unicode="&#x2009;" horiz-adv-x="372" />
<glyph unicode="&#x200a;" horiz-adv-x="103" />
<glyph unicode="&#x2010;" horiz-adv-x="1149" d="M95 239v177h981v-177h-981z" />
<glyph unicode="&#x2011;" horiz-adv-x="1149" d="M95 239v177h981v-177h-981z" />
<glyph unicode="&#x2012;" horiz-adv-x="1149" d="M95 239v177h981v-177h-981z" />
<glyph unicode="&#x2013;" horiz-adv-x="1192" d="M95 239v177h1024v-177h-1024z" />
<glyph unicode="&#x2014;" horiz-adv-x="2216" d="M95 239v177h2048v-177h-2048z" />
<glyph unicode="&#x2018;" horiz-adv-x="662" d="M203 1065q0 123 25 189q43 111 176 124v-65q-77 -9 -105 -77q-16 -40 -20 -136q188 0 188 -124q0 -110 -137 -110q-81 0 -104 38t-23 161z" />
<glyph unicode="&#x2019;" horiz-adv-x="570" d="M153 1268q0 110 136 110q83 0 105 -36t22 -162t-25 -191q-42 -111 -176 -123v65q79 8 106 75q15 37 19 138q-187 0 -187 124z" />
<glyph unicode="&#x201c;" horiz-adv-x="618" d="M39 1059q0 125 25 191q42 111 176 123v-65q-79 -8 -106 -75q-15 -38 -19 -138q188 0 188 -124q0 -110 -137 -110q-82 0 -108 43q-19 30 -19 155zM340 1065q0 123 25 189q43 111 176 124v-65q-77 -9 -105 -77q-16 -40 -20 -136q188 0 188 -124q0 -110 -136 -110 q-82 0 -105 38t-23 161z" />
<glyph unicode="&#x201d;" horiz-adv-x="618" d="M39 1263q0 110 136 110h4q77 -1 100.5 -36.5t23.5 -143.5v-19q0 -124 -25 -189q-43 -111 -177 -124v65q78 9 105 77q16 39 20 136q-187 0 -187 124zM340 1268q0 110 136 110q83 0 109 -43q19 -29 19 -155t-25 -191q-43 -111 -176 -123v65q78 8 106 75q15 37 19 138 q-188 0 -188 124z" />
<glyph unicode="&#x202f;" horiz-adv-x="372" />
<glyph unicode="&#x2039;" horiz-adv-x="631" d="M170 255v194l320 250v-145l-259 -200l259 -203v-146z" />
<glyph unicode="&#x203a;" horiz-adv-x="573" d="M152 5v144l263 200l-263 204v146l321 -250v-194z" />
<glyph unicode="&#x205f;" horiz-adv-x="465" />
<glyph unicode="&#x25fc;" horiz-adv-x="500" d="M0 0z" />
</font>
</defs>
</svg>
